<svg width="800" height="800" viewBox="0 0 800 800" fill="none" xmlns="http://www.w3.org/2000/svg">
<path d="M223.029 543.03C213.657 552.403 213.657 567.597 223.029 576.97C232.402 586.342 247.598 586.342 256.971 576.97L223.029 543.03ZM416.97 416.97C426.342 407.597 426.342 392.403 416.97 383.03C407.597 373.658 392.403 373.658 383.03 383.03L416.97 416.97ZM383.03 383.03C373.658 392.403 373.658 407.597 383.03 416.97C392.403 426.342 407.597 426.342 416.97 416.97L383.03 383.03ZM576.97 256.97C586.342 247.598 586.342 232.402 576.97 223.029C567.597 213.657 552.403 213.657 543.03 223.029L576.97 256.97ZM416.97 383.03C407.597 373.658 392.403 373.658 383.03 383.03C373.658 392.403 373.658 407.597 383.03 416.97L416.97 383.03ZM543.03 576.97C552.403 586.342 567.597 586.342 576.97 576.97C586.342 567.597 586.342 552.403 576.97 543.03L543.03 576.97ZM383.03 416.97C392.403 426.342 407.597 426.342 416.97 416.97C426.342 407.597 426.342 392.403 416.97 383.03L383.03 416.97ZM256.971 223.029C247.598 213.657 232.402 213.657 223.029 223.029C213.657 232.402 213.657 247.598 223.029 256.97L256.971 223.029ZM256.971 576.97L416.97 416.97L383.03 383.03L223.029 543.03L256.971 576.97ZM416.97 416.97L576.97 256.97L543.03 223.029L383.03 383.03L416.97 416.97ZM383.03 416.97L543.03 576.97L576.97 543.03L416.97 383.03L383.03 416.97ZM416.97 383.03L256.971 223.029L223.029 256.97L383.03 416.97L416.97 383.03Z" fill="white"/>
</svg>
